<?xml version="1.0" encoding="UTF-8"?>
<svg xmlns="http://www.w3.org/2000/svg" version="1.1" viewBox="0 0 1024 1024">
  <!-- Generator: Adobe Illustrator 30.0.0, SVG Export Plug-In . SVG Version: 2.1.1 Build 123)  -->
  <defs>
    <style>
      .st0 {
        fill: #606060;
      }

      .st1 {
        fill: #d9ac00;
      }

      .st2 {
        fill: #324d3f;
      }
    </style>
  </defs>
  <g id="Background">
    <rect class="st2" width="1024" height="1024"/>
    <g id="E-6_Sergeant">
      <g id="E-6_Stripes">
        <path id="E-6_Strip3" class="st1" d="M513.27,506.92c-.43-.46-.84-.92-1.27-1.38-.42.46-.85.92-1.26,1.38-83.98,89.99-182.41,161.65-290.41,212.78v79.77c8.03-3.48,16-7.05,23.91-10.72,60.16-27.93,117.94-61.94,171.72-101.05,33.49-24.34,65.61-50.81,96.03-79.09,30.42,28.27,62.55,54.75,96.03,79.09,53.78,39.11,111.56,73.12,171.71,101.05,7.93,3.67,15.9,7.24,23.91,10.72v-79.77c-108-51.13-206.42-122.79-290.39-212.78Z"/>
        <path id="E-6_Strip2" class="st1" d="M595.06,425.13c-30.21-32.39-57.92-66.45-83.06-102-25.13,35.55-52.84,69.61-83.06,102-62.25,66.71-132.46,123.36-208.61,169.02v83.65c39.44-21.44,77.55-45.5,113.85-71.89,53.25-38.73,103.08-82.83,148.08-131.04,10.15-10.88,20.06-22,29.74-33.33,9.68,11.33,19.6,22.44,29.75,33.33,44.99,48.21,94.81,92.31,148.08,131.04,36.29,26.4,74.41,50.45,113.84,71.89v-83.65c-76.15-45.66-146.35-102.31-208.61-169.02Z"/>
        <path id="E-6_Strip1" class="st1" d="M676.85,343.33c-67.88-72.74-123.16-154.07-164.85-241.33-41.7,87.26-96.97,168.6-164.85,241.33-39.26,42.09-81.72,80.16-126.82,114.01v89.15c10.83-7.25,21.53-14.7,32.05-22.36,53.26-38.74,103.09-82.83,148.08-131.06,41.21-44.16,78.66-92.12,111.53-142.76,32.87,50.64,70.33,98.6,111.53,142.76,45,48.23,94.82,92.32,148.08,131.06,10.54,7.66,21.24,15.11,32.05,22.36v-89.15c-45.09-33.85-87.54-71.92-126.81-114.01Z"/>
      </g>
    </g>
  </g>
  <g id="App_Icon_Shape">
    <path class="st0" d="M0,0v1024h1024V0H0ZM1024,651c0,14.24,0,28.48-.08,42.73-.07,12-.21,23.99-.53,35.98-.71,26.13-2.25,52.49-6.89,78.34-4.71,26.22-12.4,50.62-24.53,74.44-11.92,23.41-27.49,44.84-46.07,63.41s-40,34.15-63.41,46.07c-23.82,12.12-48.22,19.82-74.44,24.53-25.84,4.65-52.2,6.18-78.34,6.89-11.99.33-23.99.46-35.98.53-14.24.09-28.48.08-42.73.08h-278c-14.24,0-28.48,0-42.73-.08-12-.07-23.99-.21-35.98-.53-26.13-.71-52.49-2.25-78.34-6.89-26.22-4.71-50.62-12.4-74.44-24.53-23.41-11.92-44.84-27.49-63.41-46.07s-34.15-40-46.07-63.41c-12.12-23.82-19.82-48.22-24.53-74.44-4.65-25.84-6.18-52.2-6.89-78.34-.33-11.99-.46-23.99-.53-35.98C0,679.48,0,665.24,0,651v-278C0,358.76,0,344.52.08,330.27c.07-12,.21-23.99.53-35.98.71-26.13,2.25-52.49,6.89-78.34,4.71-26.22,12.4-50.62,24.53-74.44,11.92-23.41,27.49-44.84,46.07-63.41s40-34.15,63.41-46.07c23.82-12.12,48.22-19.82,74.44-24.53,25.84-4.65,52.2-6.18,78.34-6.89,11.99-.33,23.99-.46,35.98-.53C344.52,0,358.76,0,373,0h278c14.24,0,28.48,0,42.73.08,12,.07,23.99.21,35.98.53,26.13.71,52.49,2.25,78.34,6.89,26.22,4.71,50.62,12.4,74.44,24.53,23.41,11.92,44.84,27.49,63.41,46.07s34.15,40,46.07,63.41c12.12,23.82,19.82,48.22,24.53,74.44,4.65,25.84,6.18,52.2,6.89,78.34.33,11.99.46,23.99.53,35.98.09,14.24.08,28.48.08,42.73v278Z"/>
  </g>
</svg>