<?xml version="1.0" encoding="UTF-8"?>
<svg xmlns="http://www.w3.org/2000/svg" version="1.1" viewBox="0 0 1024 1024">
  <!-- Generator: Adobe Illustrator 30.0.0, SVG Export Plug-In . SVG Version: 2.1.1 Build 123)  -->
  <defs>
    <style>
      .st0 {
        fill: #606060;
      }

      .st1 {
        fill: #004e76;
      }

      .st2 {
        fill: #d9ac00;
      }

      .st3 {
        fill: #00507a;
      }
    </style>
  </defs>
  <g id="Background">
    <rect class="st1" width="1024" height="1024"/>
  </g>
  <g id="_x31___x2013__Layer">
    <g>
      <g>
        <path class="st2" d="M461.76,714.79V242.61c0-80.51,39.58-140.81,39.98-141.41l1.19-1.78,1.19,1.78c.4.6,39.98,60.9,39.98,141.41v472.18h-82.33Z"/>
        <path class="st3" d="M502.93,102s39.74,59.61,39.74,140.61v470.75h-79.48V242.61c0-81.01,39.74-140.61,39.74-140.61M502.93,96.85l-2.38,3.57c-.41.62-10.22,15.44-20.15,40.46-9.16,23.07-20.07,59.44-20.07,101.74v473.61h85.19V242.61c0-42.3-10.91-78.67-20.07-101.74-9.93-25.02-19.74-39.84-20.15-40.46l-2.38-3.57h0Z"/>
      </g>
      <g>
        <path class="st2" d="M503.21,923.43c-43.99,0-44.5-36.82-44.5-38.39,0-11.83,2.2-21.47,4.53-31.67,2.89-12.66,6.17-27.01,6.17-49.06,0-25.83-7.34-47.21-10.49-55.2l-.77-1.95h90.13l-.77,1.95c-3.15,7.99-10.49,29.38-10.49,55.2,0,22.04,3.28,36.39,6.17,49.06,2.33,10.21,4.53,19.85,4.53,31.67,0,1.57-.51,38.39-44.5,38.39Z"/>
        <path class="st3" d="M546.17,748.59c-3.33,8.43-10.59,29.8-10.59,55.73,0,40.12,10.7,54.61,10.7,80.73,0,7.62-4.59,36.96-43.07,36.96s-43.07-29.34-43.07-36.96c0-26.12,10.7-40.61,10.7-80.73,0-25.93-7.27-47.29-10.59-55.73h85.93M550.37,745.73h-94.33l1.54,3.91c3.13,7.92,10.39,29.1,10.39,54.68,0,21.88-3.26,36.15-6.13,48.74-2.35,10.29-4.57,20-4.57,31.99,0,2.07.37,12.89,7.64,23,9.99,13.89,26.33,16.81,38.29,16.81s28.3-2.92,38.29-16.81c7.27-10.12,7.64-20.94,7.64-23,0-11.99-2.22-21.7-4.57-31.99-2.87-12.59-6.13-26.86-6.13-48.74,0-25.58,7.27-46.76,10.39-54.68l1.54-3.91h0Z"/>
      </g>
      <g>
        <polygon class="st2" points="605.38 352.17 611 390.56 506.4 304.98 506.4 348.99 378.78 208.6 384.7 200.76 468.37 242.21 462.58 210.39 552.46 285.44 552.46 255.26 698.39 384.98 692.95 393.25 605.38 352.17"/>
        <path class="st3" d="M382.48,205.24l92.59,45.87-5.1-28.03,87.49,73.05v-29.73l137.61,122.32-95.99-45.02,5.1,34.83-102.78-84.1v41.62l-118.92-130.81M386.92,196.28l-11.84,15.69,118.92,130.81,17.4,19.14v-46.39l86.45,70.73,19.97,16.34-3.74-25.53-2.4-16.43,79.15,37.12,10.89-16.53-137.61-122.32-16.65-14.8v22.27s0,8.35,0,8.35l-71.08-59.35-21.19-17.69,4.94,27.16,1.53,8.44-74.75-37.03h0Z"/>
      </g>
      <g>
        <polygon class="st2" points="616.18 511.66 621.76 557.25 492.58 444.32 496.06 508.78 319.39 324.94 325.29 317.03 434.9 373.42 433.08 326.33 557.33 433.43 559.89 392.47 756.99 567.48 751.53 575.74 616.18 511.66"/>
        <path class="st3" d="M323,321.48l117.22,60.31-1.7-44.17,123.17,106.18,2.55-40.77,189.43,168.19-143.56-67.96,5.1,41.62-128.27-112.13,3.4,62.86-167.34-174.14M327.57,312.58l-11.79,15.82,167.34,174.14,18.65,19.41-1.45-26.88-2.12-39.19,110.42,96.52,19.69,17.21-3.18-25.96-2.89-23.6,127.14,60.19,10.92-16.52-189.43-168.19-15.34-13.62-1.28,20.48-1.29,20.67-107.91-93.03-17.41-15.01.88,22.97,1.04,27.06-101.99-52.48h0Z"/>
      </g>
      <g>
        <polygon class="st2" points="582.95 663.67 588.45 712.28 439.54 588.19 441.28 662.19 266.73 481.38 272.58 473.44 386.69 530.9 385.81 464.34 523.16 582.43 515.5 534.82 730.6 720.46 725.25 728.8 582.95 663.67"/>
        <path class="st3" d="M390.95,475.36l139.31,119.77-7.64-47.57,204.72,176.68-150.35-68.81,5.1,45.02-147.8-123.17,1.7,72.2-165.64-171.59,121.47,61.16-.85-63.71M380.66,453.32l.3,22.18.63,47.23-106.75-53.75-11.69,15.88,165.64,171.59,17.8,18.44-.6-25.62-1.18-50.18,130.88,109.07,19.15,15.95-2.8-24.76-3.11-27.44,134.26,61.44,10.7-16.67-204.72-176.68-20.76-17.92,4.35,27.08,3.31,20.57-118.57-101.95-16.82-14.46h0Z"/>
      </g>
      <g>
        <path class="st2" d="M423.73,753.53c-12.45,0-22.58-10.13-22.58-22.58s10.13-22.58,22.58-22.58h158.95c12.45,0,22.58,10.13,22.58,22.58s-10.13,22.58-22.58,22.58h-158.95Z"/>
        <path class="st3" d="M582.68,713.37c9.71,0,17.58,7.87,17.58,17.58s-7.87,17.58-17.58,17.58h-158.95c-9.71,0-17.58-7.87-17.58-17.58s7.87-17.58,17.58-17.58h158.95M582.68,703.37h-158.95c-15.21,0-27.58,12.37-27.58,27.58s12.37,27.58,27.58,27.58h158.95c15.21,0,27.58-12.37,27.58-27.58s-12.37-27.58-27.58-27.58h0Z"/>
      </g>
    </g>
  </g>
  <g id="App_Icon_Shape">
    <path class="st0" d="M0,0v1024h1024V0H0ZM1024,651c0,14.24,0,28.48-.08,42.73-.07,12-.21,23.99-.53,35.98-.71,26.13-2.25,52.49-6.89,78.34-4.71,26.22-12.4,50.62-24.53,74.44-11.92,23.41-27.49,44.84-46.07,63.41s-40,34.15-63.41,46.07c-23.82,12.12-48.22,19.82-74.44,24.53-25.84,4.65-52.2,6.18-78.34,6.89-11.99.33-23.99.46-35.98.53-14.24.09-28.48.08-42.73.08h-278c-14.24,0-28.48,0-42.73-.08-12-.07-23.99-.21-35.98-.53-26.13-.71-52.49-2.25-78.34-6.89-26.22-4.71-50.62-12.4-74.44-24.53-23.41-11.92-44.84-27.49-63.41-46.07s-34.15-40-46.07-63.41c-12.12-23.82-19.82-48.22-24.53-74.44-4.65-25.84-6.18-52.2-6.89-78.34-.33-11.99-.46-23.99-.53-35.98C0,679.48,0,665.24,0,651v-278C0,358.76,0,344.52.08,330.27c.07-12,.21-23.99.53-35.98.71-26.13,2.25-52.49,6.89-78.34,4.71-26.22,12.4-50.62,24.53-74.44,11.92-23.41,27.49-44.84,46.07-63.41s40-34.15,63.41-46.07c23.82-12.12,48.22-19.82,74.44-24.53,25.84-4.65,52.2-6.18,78.34-6.89,11.99-.33,23.99-.46,35.98-.53C344.52,0,358.76,0,373,0h278c14.24,0,28.48,0,42.73.08,12,.07,23.99.21,35.98.53,26.13.71,52.49,2.25,78.34,6.89,26.22,4.71,50.62,12.4,74.44,24.53,23.41,11.92,44.84,27.49,63.41,46.07s34.15,40,46.07,63.41c12.12,23.82,19.82,48.22,24.53,74.44,4.65,25.84,6.18,52.2,6.89,78.34.33,11.99.46,23.99.53,35.98.09,14.24.08,28.48.08,42.73v278Z"/>
  </g>
</svg>