<?xml version="1.0" encoding="UTF-8"?>
<svg xmlns="http://www.w3.org/2000/svg" version="1.1" viewBox="0 0 1024 1024">
  <!-- Generator: Adobe Illustrator 30.0.0, SVG Export Plug-In . SVG Version: 2.1.1 Build 123)  -->
  <defs>
    <style>
      .st0 {
        fill: #d3af37;
      }

      .st1 {
        fill: #606060;
      }
    </style>
  </defs>
  <g id="Background">
    <rect width="1024" height="1024"/>
  </g>
  <g id="_x31___x2013__Layer">
    <g>
      <path class="st0" d="M593.62,661.77l-137.78,137.78c-64.24,64.24-168.07,64.77-232.96,1.58-63.2-64.89-62.67-168.72,1.58-232.97l129.64-129.64c9.02-9.02,18.81-16.78,29.17-23.28,41.02-25.76,90.86-31.85,136.05-18.25,10.96,3.29,21.64,7.75,31.85,13.36,12.83,7.04,24.92,15.91,35.89,26.6.76.78,1.52,1.57,2.26,2.37,15.56,16.61,15.06,42.59-1.22,58.5l-2.82,2.75c-16.78,16.4-43.73,15.72-59.76-1.42-.11-.11-.21-.23-.32-.34.54.51,1.08,1.03,1.61,1.56l-3.17-3.17c.53.53,1.05,1.07,1.56,1.61-11.38-10.76-25.43-17.74-40.64-20.3-4.32-.73-8.73-1.1-13.19-1.1-1.73,0-3.45.05-5.16.17-5.98.39-11.84,1.44-17.47,3.13-12.26,3.68-23.49,10.35-32.8,19.66l-129.64,129.64c-13.58,13.58-21.57,31.27-22.8,50.28-.11,1.71-.17,3.43-.17,5.16,0,20.19,7.58,39.22,21.4,53.83-.54-.51-1.08-1.03-1.61-1.56l3.17,3.17c-.53-.53-1.05-1.06-1.56-1.61,14.61,13.82,33.63,21.4,53.82,21.4,1.73,0,3.45-.05,5.16-.16,19-1.23,36.69-9.21,50.28-22.8l85.61-85.61c.12.05.24.09.36.14,23.59,9.3,48.46,13.94,73.91,13.78,13.46-.08,26.75-1.51,39.75-4.25Z"/>
      <path class="st0" d="M799.55,455.84l-129.64,129.64c-9.02,9.02-18.82,16.78-29.18,23.29-41.02,25.76-90.86,31.85-136.04,18.25-10.96-3.3-21.64-7.75-31.85-13.36-12.83-7.04-24.92-15.91-35.89-26.6-.76-.78-1.52-1.57-2.26-2.37-15.56-16.61-15.06-42.59,1.22-58.5l2.81-2.75c16.78-16.4,43.74-15.72,59.76,1.42.11.11.21.23.32.34-.54-.51-1.08-1.03-1.61-1.56l3.17,3.17c-.53-.53-1.05-1.06-1.56-1.61,11.38,10.76,25.43,17.74,40.64,20.3,4.31.73,8.72,1.1,13.19,1.1,1.73,0,3.45-.05,5.16-.16,5.99-.39,11.84-1.44,17.48-3.14,12.26-3.68,23.49-10.35,32.8-19.66l129.64-129.64c13.59-13.59,21.57-31.28,22.8-50.28.11-1.71.17-3.43.16-5.16,0-20.19-7.58-39.22-21.4-53.82.54.51,1.08,1.03,1.61,1.56l-3.17-3.17c.53.53,1.05,1.07,1.56,1.61-14.61-13.82-33.64-21.4-53.83-21.4-1.73,0-3.45.05-5.16.17-19,1.23-36.69,9.21-50.28,22.8l-85.61,85.61c-.12-.05-.24-.09-.36-.14-23.59-9.31-48.46-13.94-73.91-13.78-13.47.08-26.75,1.51-39.75,4.26l137.78-137.78c64.24-64.24,168.08-64.77,232.97-1.58,63.19,64.89,62.66,168.72-1.58,232.96Z"/>
    </g>
  </g>
  <g id="App_Icon_Shape">
    <path class="st1" d="M0,0v1024h1024V0H0ZM1024,651c0,14.24,0,28.48-.08,42.73-.07,12-.21,23.99-.53,35.98-.71,26.13-2.25,52.49-6.89,78.34-4.71,26.22-12.4,50.62-24.53,74.44-11.92,23.41-27.49,44.84-46.07,63.41s-40,34.15-63.41,46.07c-23.82,12.12-48.22,19.82-74.44,24.53-25.84,4.65-52.2,6.18-78.34,6.89-11.99.33-23.99.46-35.98.53-14.24.09-28.48.08-42.73.08h-278c-14.24,0-28.48,0-42.73-.08-12-.07-23.99-.21-35.98-.53-26.13-.71-52.49-2.25-78.34-6.89-26.22-4.71-50.62-12.4-74.44-24.53-23.41-11.92-44.84-27.49-63.41-46.07s-34.15-40-46.07-63.41c-12.12-23.82-19.82-48.22-24.53-74.44-4.65-25.84-6.18-52.2-6.89-78.34-.33-11.99-.46-23.99-.53-35.98C0,679.48,0,665.24,0,651v-278C0,358.76,0,344.52.08,330.27c.07-12,.21-23.99.53-35.98.71-26.13,2.25-52.49,6.89-78.34,4.71-26.22,12.4-50.62,24.53-74.44,11.92-23.41,27.49-44.84,46.07-63.41s40-34.15,63.41-46.07c23.82-12.12,48.22-19.82,74.44-24.53,25.84-4.65,52.2-6.18,78.34-6.89,11.99-.33,23.99-.46,35.98-.53C344.52,0,358.76,0,373,0h278c14.24,0,28.48,0,42.73.08,12,.07,23.99.21,35.98.53,26.13.71,52.49,2.25,78.34,6.89,26.22,4.71,50.62,12.4,74.44,24.53,23.41,11.92,44.84,27.49,63.41,46.07s34.15,40,46.07,63.41c12.12,23.82,19.82,48.22,24.53,74.44,4.65,25.84,6.18,52.2,6.89,78.34.33,11.99.46,23.99.53,35.98.09,14.24.08,28.48.08,42.73v278Z"/>
  </g>
</svg>