<?xml version="1.0" encoding="UTF-8"?>
<svg xmlns="http://www.w3.org/2000/svg" version="1.1" viewBox="0 0 1024 1024">
  <!-- Generator: Adobe Illustrator 30.0.0, SVG Export Plug-In . SVG Version: 2.1.1 Build 123)  -->
  <defs>
    <style>
      .st0 {
        fill: #d3af37;
      }

      .st1 {
        fill: #606060;
      }

      .st2 {
        display: none;
      }

      .st3 {
        fill: none;
        stroke: #5db3f9;
        stroke-miterlimit: 10;
        stroke-width: 1.5px;
      }
    </style>
  </defs>
  <g id="Background">
    <rect width="1024" height="1024"/>
  </g>
  <g id="_x31___x2013__Layer">
    <polygon class="st0" points="350.97 557.38 128.95 371.49 416.57 363.34 512 102 607.43 363.34 895.05 371.49 673.03 557.38 744.98 846.69 512 688.36 279.02 846.69 350.97 557.38"/>
  </g>
  <g id="App_Icon_Shape">
    <path class="st1" d="M0,0v1024h1024V0H0ZM1024,651c0,14.24,0,28.48-.08,42.73-.07,12-.21,23.99-.53,35.98-.71,26.13-2.25,52.49-6.89,78.34-4.71,26.22-12.4,50.62-24.53,74.44-11.92,23.41-27.49,44.84-46.07,63.41s-40,34.15-63.41,46.07c-23.82,12.12-48.22,19.82-74.44,24.53-25.84,4.65-52.2,6.18-78.34,6.89-11.99.33-23.99.46-35.98.53-14.24.09-28.48.08-42.73.08h-278c-14.24,0-28.48,0-42.73-.08-12-.07-23.99-.21-35.98-.53-26.13-.71-52.49-2.25-78.34-6.89-26.22-4.71-50.62-12.4-74.44-24.53-23.41-11.92-44.84-27.49-63.41-46.07s-34.15-40-46.07-63.41c-12.12-23.82-19.82-48.22-24.53-74.44-4.65-25.84-6.18-52.2-6.89-78.34-.33-11.99-.46-23.99-.53-35.98C0,679.48,0,665.24,0,651v-278C0,358.76,0,344.52.08,330.27c.07-12,.21-23.99.53-35.98.71-26.13,2.25-52.49,6.89-78.34,4.71-26.22,12.4-50.62,24.53-74.44,11.92-23.41,27.49-44.84,46.07-63.41s40-34.15,63.41-46.07c23.82-12.12,48.22-19.82,74.44-24.53,25.84-4.65,52.2-6.18,78.34-6.89,11.99-.33,23.99-.46,35.98-.53C344.52,0,358.76,0,373,0h278c14.24,0,28.48,0,42.73.08,12,.07,23.99.21,35.98.53,26.13.71,52.49,2.25,78.34,6.89,26.22,4.71,50.62,12.4,74.44,24.53,23.41,11.92,44.84,27.49,63.41,46.07s34.15,40,46.07,63.41c12.12,23.82,19.82,48.22,24.53,74.44,4.65,25.84,6.18,52.2,6.89,78.34.33,11.99.46,23.99.53,35.98.09,14.24.08,28.48.08,42.73v278Z"/>
  </g>
  <g id="Grid" class="st2">
    <g id="SUBDIVISIONS">
      <line class="st3" x1="1024" y1="0" x2="0" y2="1024"/>
      <line class="st3" x1="1024" y1="1024" x2="0" y2="0"/>
      <line class="st3" x1="512" y1="0" x2="512" y2="1024"/>
      <line class="st3" x1="1024" y1="512" x2="0" y2="512"/>
      <line class="st3" x1="512" y1="0" x2="512" y2="1024"/>
      <line class="st3" x1="1024" y1="512" x2="0" y2="512"/>
      <line class="st3" x1="1024" y1="640" x2="0" y2="640"/>
      <line class="st3" x1="1024" y1="768" x2="0" y2="768"/>
      <line class="st3" x1="1024" y1="896" x2="0" y2="896"/>
      <line class="st3" x1="1024" y1="384" x2="0" y2="384"/>
      <line class="st3" x1="1024" y1="256" x2="0" y2="256"/>
      <line class="st3" x1="1024" y1="128" x2="0" y2="128"/>
      <line class="st3" x1="512" y1="1024" x2="512" y2="0"/>
      <line class="st3" x1="512" y1="1024" x2="512" y2="0"/>
      <line class="st3" x1="384" y1="1024" x2="384" y2="0"/>
      <line class="st3" x1="256" y1="1024" x2="256" y2="0"/>
      <line class="st3" x1="128" y1="1024" x2="128" y2="0"/>
      <line class="st3" x1="640" y1="1024" x2="640" y2="0"/>
      <line class="st3" x1="768" y1="1024" x2="768" y2="0"/>
      <line class="st3" x1="896" y1="1024" x2="896" y2="0"/>
    </g>
    <g id="CIRCLES">
      <circle class="st3" cx="512" cy="512" r="410"/>
      <circle class="st3" cx="512" cy="512" r="256"/>
      <circle class="st3" cx="512" cy="512" r="102"/>
    </g>
  </g>
</svg>
